<svg id="Layer_1" data-name="Layer 1" xmlns="http://www.w3.org/2000/svg" viewBox="0 0 1237.87 347.55"><defs><style>.cls-1{fill:#fff;}</style></defs><path class="cls-1" d="M461,126.22l25.39,79.14,25.31-79.14h36.09V240h-27.5V213.4L522.91,159,495.41,240H477.28l-27.57-81,2.65,54.45V240H424.94V126.22Z"/><path class="cls-1" d="M661.5,185.43q0,16.65-6.17,29.46a45.57,45.57,0,0,1-17.54,19.72,48.84,48.84,0,0,1-25.9,6.92,49.57,49.57,0,0,1-25.78-6.68,45.51,45.51,0,0,1-17.54-19.1q-6.29-12.42-6.6-28.52v-6.41q0-16.71,6.13-29.49a45.5,45.5,0,0,1,17.58-19.72,52,52,0,0,1,51.84-.08,46.39,46.39,0,0,1,17.62,19.57q6.29,12.69,6.36,29.1Zm-27.89-4.76q0-16.95-5.66-25.74a18.17,18.17,0,0,0-16.21-8.79q-20.62,0-21.8,30.93l-.08,8.36q0,16.73,5.55,25.71t16.48,9a17.92,17.92,0,0,0,16-8.83q5.63-8.82,5.7-25.39Z"/><path class="cls-1" d="M772,185.43q0,16.65-6.17,29.46a45.63,45.63,0,0,1-17.54,19.72,48.84,48.84,0,0,1-25.9,6.92,49.55,49.55,0,0,1-25.78-6.68A45.51,45.51,0,0,1,679,215.75q-6.28-12.42-6.6-28.52v-6.41q0-16.71,6.13-29.49a45.5,45.5,0,0,1,17.58-19.72,52,52,0,0,1,51.84-.08A46.3,46.3,0,0,1,765.6,151.1q6.3,12.69,6.37,29.1Zm-27.89-4.76q0-16.95-5.66-25.74a18.17,18.17,0,0,0-16.21-8.79q-20.62,0-21.8,30.93l-.08,8.36q0,16.73,5.55,25.71t16.48,9a17.92,17.92,0,0,0,16-8.83q5.63-8.82,5.7-25.39Z"/><path class="cls-1" d="M828.53,209l22.66-82.81h30.62L843.53,240h-30l-38-113.75H806Z"/><path class="cls-1" d="M919.31,240H892V126.22h27.34Z"/><path class="cls-1" d="M1026.94,240h-15.08V187.39H954.52V240h-15V126.22h15v48.9h57.34v-48.9h15.08Z"/><path class="cls-1" d="M1133.66,126.22v77.34q-.09,16.09-10.12,26.33t-27.23,11.48l-4,.16q-18.67,0-29.77-10.08t-11.25-27.73v-77.5h14.85v77q0,12.34,6.79,19.18t19.38,6.83q12.74,0,19.49-6.79t6.76-19.15v-77.1Z"/><path class="cls-1" d="M1157.33,240V126.22h37.19q18.51,0,27.85,7.65t9.33,22.66a23.11,23.11,0,0,1-4.53,14.1,29.33,29.33,0,0,1-12.34,9.49,26.41,26.41,0,0,1,14.57,9.81,28.1,28.1,0,0,1,5.35,17.22q0,15.32-9.92,24.07t-28,8.75Zm15-65.24H1195q9.84,0,15.74-4.93t5.9-13.39q0-9.39-5.47-13.66t-16.64-4.27h-22.19Zm0,12V227.7h24.77q10.45,0,16.52-5.43t6.05-15q0-20.55-22.34-20.55Z"/><path class="cls-1" d="M353.35,192.25A24.54,24.54,0,0,0,326,201.08l-30.58-9.93a98.11,98.11,0,0,0-31.69-97.51l22.35-30.77a30.65,30.65,0,1,0-12.39-9L251.33,84.63a98.1,98.1,0,0,0-102.53,0L137.1,68.52a24.52,24.52,0,1,0-12.4,9l11.71,16.11a97.82,97.82,0,0,0-34.1,66.92h-38a30.63,30.63,0,1,0,0,15.32h38A98.13,98.13,0,0,0,223,263.57l8,24.5a30.65,30.65,0,1,0,14.57-4.73l-8-24.5a98.4,98.4,0,0,0,53.12-53.12l30.58,9.93a24.51,24.51,0,1,0,32.09-23.4ZM200.06,88.55a24.52,24.52,0,1,1-24.51,24.51A24.52,24.52,0,0,1,200.06,88.55ZM124.3,143.6A24.51,24.51,0,1,1,140,174.49,24.51,24.51,0,0,1,124.3,143.6Zm63.18,83.65A24.52,24.52,0,1,1,182.05,193,24.51,24.51,0,0,1,187.48,227.25Zm12.58-52.9a6.13,6.13,0,1,1,6.13-6.13A6.13,6.13,0,0,1,200.06,174.35Zm46.83,58.32a24.51,24.51,0,1,1,5.42-34.24A24.51,24.51,0,0,1,246.89,232.67Zm13.2-58.18a24.51,24.51,0,1,1,15.74-30.89A24.52,24.52,0,0,1,260.09,174.49Z"/></svg>