<svg id="Capa_1" enable-background="new 0 0 511.997 511.997" height="512" viewBox="0 0 511.997 511.997" width="512" xmlns="http://www.w3.org/2000/svg"><g><path d="m507.609 486.388-482-482c-5.86-5.85-15.36-5.85-21.22 0-5.85 5.86-5.85 15.36 0 21.22l95.39 95.39h-53.78c-8.28 0-15 6.72-15 15v240c0 8.28 6.72 15 15 15h323.78l116.61 116.61c2.93 2.93 6.77 4.39 10.61 4.39s7.68-1.46 10.61-4.39c5.85-5.861 5.85-15.361 0-21.22zm-210.27-167.83c-9.06 6-19.5 10.1-30.73 11.69-3.47.49-7.01.75-10.61.75-41.36 0-75-33.64-75-75 0-3.6.26-7.14.75-10.61 1.59-11.23 5.69-21.67 11.69-30.73l21.96 21.96c-2.82 5.87-4.4 12.45-4.4 19.38 0 24.81 20.19 45 45 45 6.93 0 13.51-1.58 19.38-4.4z"/><path d="m255.999 180.998c41.36 0 75 33.64 75 75 0 3.6-.26 7.14-.75 10.61l124.39 124.39h11.36c8.28 0 15-6.72 15-15v-240c0-8.28-6.72-15-15-15h-110.73l-17.56-35.12c-7.67-15.35-23.1-24.88-40.25-24.88h-82.92c-17.15 0-32.58 9.53-40.25 24.88l-8.26 16.51 79.36 79.36c3.47-.49 7.01-.75 10.61-.75zm150 0c8.28 0 15 6.72 15 15s-6.72 15-15 15-15-6.72-15-15 6.72-15 15-15zm-195-45c0-8.28 6.72-15 15-15h60c8.28 0 15 6.72 15 15s-6.72 15-15 15h-60c-8.28 0-15-6.72-15-15z"/></g></svg>