<svg id="Layer_1" data-name="Layer 1" xmlns="http://www.w3.org/2000/svg" viewBox="0 0 402.67 533.34"><path d="M376,205H353.11V153.6c0-84.25-68.14-153-151.78-153S49.56,69.35,49.56,153.6V205H35.31C18,205,0,218.64,0,236V502.37c0,17.34,18,31,35.31,31H376c17.35,0,26.64-13.63,26.64-31V236C402.67,218.64,392.76,205,376,205ZM303,322,176.41,448.65a10.85,10.85,0,0,1-15.37,0L99.66,387.26a16.29,16.29,0,0,1,0-23.05l7.68-7.69a16.3,16.3,0,0,1,23.06,0l38.32,38.32L272.27,291.3a16.27,16.27,0,0,1,23.05,0L303,299A16.3,16.3,0,0,1,303,322Zm12.93-117H86.73V153.6c0-63.81,51.42-115.85,114.6-115.85s114.61,52,114.61,115.85Z"/></svg>