<?xml version="1.0" encoding="iso-8859-1"?>
<!-- Generator: Adobe Illustrator 19.0.0, SVG Export Plug-In . SVG Version: 6.00 Build 0)  -->
<svg version="1.1" id="Capa_1" xmlns="http://www.w3.org/2000/svg" xmlns:xlink="http://www.w3.org/1999/xlink" x="0px" y="0px"
	 viewBox="0 0 456.218 456.218" style="enable-background:new 0 0 456.218 456.218;" xml:space="preserve">
<g>
	<g>
		<path d="M441.344,61.965H15.36C6.656,61.965,0,68.621,0,77.325v301.568c0,8.704,6.656,15.36,15.36,15.36h425.472
			c8.704,0,15.36-6.656,15.36-15.36V77.325C456.704,68.621,449.536,61.965,441.344,61.965z M114.688,363.021H30.72v-72.192h83.968
			V363.021z M114.688,260.109H30.72v-64h83.968V260.109z M114.688,165.389H30.72V92.685h83.968V165.389z M425.984,363.021h-83.968
			v-72.192h83.968V363.021z M425.984,260.109h-83.968v-64h83.968V260.109z M425.984,165.389h-83.968V92.685h83.968V165.389z"/>
	</g>
</g>
<g>
</g>
<g>
</g>
<g>
</g>
<g>
</g>
<g>
</g>
<g>
</g>
<g>
</g>
<g>
</g>
<g>
</g>
<g>
</g>
<g>
</g>
<g>
</g>
<g>
</g>
<g>
</g>
<g>
</g>
</svg>
