<svg id="Capa_1" data-name="Capa 1" xmlns="http://www.w3.org/2000/svg" viewBox="0 0 512 512"><path d="M362.67,0H149.34a42.72,42.72,0,0,0-42.67,42.67V501.33a10.66,10.66,0,0,0,17.16,8.46L256,408.12,388.17,509.79a10.64,10.64,0,0,0,6.5,2.21,10.64,10.64,0,0,0,10.66-10.67V42.67A42.71,42.71,0,0,0,362.67,0ZM343.88,163.32,234.46,272.75a9.4,9.4,0,0,1-13.29,0l-53-53.06a14.09,14.09,0,0,1,0-19.92l6.65-6.65a14.1,14.1,0,0,1,19.93,0l33.11,33.12,89.5-89.49a14.07,14.07,0,0,1,19.92,0l6.65,6.64A14.1,14.1,0,0,1,343.88,163.32Z"/></svg>