<?xml version="1.0" encoding="utf-8"?>
<!-- Generator: Adobe Illustrator 25.2.1, SVG Export Plug-In . SVG Version: 6.00 Build 0)  -->
<svg version="1.1" id="Capa_1" xmlns="http://www.w3.org/2000/svg" xmlns:xlink="http://www.w3.org/1999/xlink" x="0px" y="0px"
	 viewBox="0 0 512 512" style="enable-background:new 0 0 512 512;" xml:space="preserve">
<path d="M362.7,0H149.3c-23.5,0-42.7,19.1-42.7,42.7v458.7c0,4.1,2.3,7.8,6,9.6c3.7,1.8,8,1.4,11.2-1.1L256,408.1l132.2,101.7
	c1.9,1.5,4.2,2.2,6.5,2.2c1.6,0,3.2-0.4,4.7-1.1c3.6-1.8,6-5.5,6-9.6V42.7C405.3,19.1,386.2,0,362.7,0z M343.9,163.3L234.5,272.8
	c-1.8,1.8-4.2,2.8-6.6,2.8s-4.9-1-6.6-2.8l-53-53.1c-5.5-5.5-5.5-14.4,0-19.9l6.6-6.6c5.5-5.5,14.4-5.5,19.9,0l33.1,33.1l89.5-89.5
	c5.5-5.5,14.4-5.5,19.9,0l6.6,6.6C349.4,148.9,349.4,157.8,343.9,163.3z"/>
</svg>
