<svg id="Capa_1" data-name="Capa 1" xmlns="http://www.w3.org/2000/svg" viewBox="0 0 512 512"><defs><style>.cls-1{fill:#ffd93b;}.cls-2{fill:#e24b4b;}.cls-3{fill:#d03f3f;}.cls-4{opacity:0.15;}.cls-5{fill:#fff;}.cls-6{fill:#3e4347;}.cls-7{fill:#f4c534;}</style></defs><circle class="cls-1" cx="256" cy="256" r="256"/><path class="cls-1" d="M512,256c0,141.44-114.64,256-256,256A255.48,255.48,0,0,1,56.72,416.72a254.65,254.65,0,0,0,160.72,56.72c141.36,0,256-114.56,256-256A254.65,254.65,0,0,0,416.72,56.72,255.72,255.72,0,0,1,512,256Z"/><path class="cls-2" d="M172,289.46a6.42,6.42,0,0,1-7.41,1.52C146.8,282.62,78,248.53,71.42,216.06a41.48,41.48,0,0,1,75.76-30.38,41.5,41.5,0,0,1,81.65-1.42C235.38,216.83,185.15,274.85,172,289.46Z"/><path class="cls-3" d="M182.59,277.12c-4.37,5.31-8.16,9.49-10.64,12.26a6.45,6.45,0,0,1-7.41,1.61c-17.76-8.35-86.59-42.45-93.13-74.91A40.06,40.06,0,0,1,72,197.66C72.66,201.84,82.24,250.45,182.59,277.12Z"/><g class="cls-4"><path class="cls-5" d="M212.42,177.26c-1.54,3.49-8.26,4-15.14.9S186,170,187.52,166.37s8.24-3.87,15.14-.9S213.86,173.76,212.42,177.26Z"/></g><path class="cls-2" d="M340,289.46a6.42,6.42,0,0,0,7.41,1.52c17.76-8.36,86.59-42.45,93.14-74.92a41.48,41.48,0,0,0-75.76-30.38,41.5,41.5,0,0,0-81.65-1.42C276.62,216.83,326.85,274.85,340,289.46Z"/><path class="cls-3" d="M329.41,277.12c4.37,5.31,8.16,9.49,10.64,12.26a6.45,6.45,0,0,0,7.41,1.61c17.76-8.35,86.59-42.45,93.13-74.91a40.06,40.06,0,0,0-.57-18.42C439.34,201.84,429.76,250.45,329.41,277.12Z"/><g class="cls-4"><path class="cls-5" d="M299.58,177.26c1.54,3.49,8.24,4,15.14.9s11.3-8.21,9.76-11.79-8.24-3.87-15.14-.9S298.14,173.76,299.58,177.26Z"/></g><path class="cls-6" d="M388.8,337.54c-12.32-7.11-56.22,30.12-132.8,28.4-76.56,1.71-120.5-35.51-132.8-28.4-14.78,5.77,14.21,83.34,132.8,83.21C374.59,420.94,403.58,343.31,388.8,337.54Z"/><path class="cls-7" d="M512,256c0,141.44-114.64,256-256,256A255.48,255.48,0,0,1,56.72,416.72a254.65,254.65,0,0,0,160.72,56.72c141.36,0,256-114.56,256-256A254.65,254.65,0,0,0,416.72,56.72,255.72,255.72,0,0,1,512,256Z"/></svg>