<svg id="Capa_1" data-name="Capa 1" xmlns="http://www.w3.org/2000/svg" viewBox="0 0 512 512"><defs><style>.cls-1{fill:#ffd93b;}.cls-2{fill:#f4c534;}.cls-3{fill:#3e4347;}.cls-4{fill:#5a5f63;}</style></defs><circle class="cls-1" cx="256" cy="256" r="256"/><path class="cls-2" d="M512,256c0,141.44-114.64,256-256,256A255.48,255.48,0,0,1,56.72,416.72a254.65,254.65,0,0,0,160.72,56.72c141.36,0,256-114.56,256-256A254.65,254.65,0,0,0,416.72,56.72,255.72,255.72,0,0,1,512,256Z"/><circle class="cls-3" cx="350.18" cy="225.6" r="40.18"/><ellipse class="cls-4" cx="361.57" cy="207.8" rx="7.87" ry="12.16" transform="translate(25.03 454.08) rotate(-66.08)"/><circle class="cls-3" cx="161.82" cy="225.6" r="40.18"/><ellipse class="cls-4" cx="173.21" cy="207.79" rx="7.87" ry="12.16" transform="translate(-86.96 281.89) rotate(-66.08)"/><path class="cls-3" d="M360.86,377.84a12,12,0,0,1-16.44,17.48,129.16,129.16,0,0,0-176.84,0,12,12,0,1,1-16.44-17.48C209.94,322.48,302.06,322.48,360.86,377.84Z"/></svg>